<svg xmlns="http://www.w3.org/2000/svg" width="1280" height="360" viewBox="0 0 1280 360" role="img" aria-label="Quantum Landscape wordmark">

    <defs>
      <linearGradient id="ql-gradient" x1="55" y1="120" x2="462" y2="230" gradientUnits="userSpaceOnUse">
        <stop offset="0%" stop-color="#15D5FF"/>
        <stop offset="44%" stop-color="#2E7CFF"/>
        <stop offset="73%" stop-color="#6E8CFF"/>
        <stop offset="100%" stop-color="#8A5CF6"/>
      </linearGradient>
      <linearGradient id="ql-text-gradient" x1="0" y1="0" x2="700" y2="0" gradientUnits="userSpaceOnUse">
        <stop offset="0%" stop-color="#F7FBFF"/>
        <stop offset="55%" stop-color="#15D5FF"/>
        <stop offset="100%" stop-color="#8A5CF6"/>
      </linearGradient>
      <filter id="soft-shadow" x="-20%" y="-20%" width="140%" height="140%"><feDropShadow dx="0" dy="10" stdDeviation="10" flood-color="#000814" flood-opacity="0.28"/></filter>
      <filter id="light-shadow" x="-20%" y="-20%" width="140%" height="140%"><feDropShadow dx="0" dy="9" stdDeviation="7" flood-color="#020B1C" flood-opacity="0.15"/></filter>
      
    </defs><rect width="1280" height="360" rx="48" fill="#020B1C"/><g transform="translate(55 42) scale(0.74)">
    <g id="quantum-landscape-mark" opacity="1.0">
      <path d="M68 205 C102 202 121 179 144 163 C168 147 186 171 205 191"
            fill="none" stroke="url(#ql-gradient)" stroke-width="31" stroke-linecap="round" stroke-linejoin="round"/>
      <path d="M306 193 C333 169 353 148 378 164 C401 178 413 202 454 205"
            fill="none" stroke="url(#ql-gradient)" stroke-width="31" stroke-linecap="round" stroke-linejoin="round"/>
      <path d="M70 205 C125 207 161 191 188 160 C214 130 220 78 247 55 C254 49 266 49 274 56 C302 83 308 132 333 160 C362 192 397 206 452 205"
            fill="none" stroke="url(#ql-gradient)" stroke-width="37" stroke-linecap="round" stroke-linejoin="round"/>
      <path d="M62 216 C118 207 156 232 210 219 C252 209 269 181 312 199 C356 218 393 216 462 214"
            fill="none" stroke="url(#ql-gradient)" stroke-width="27" stroke-linecap="round" stroke-linejoin="round"/>
    </g></g>
<text x="440" y="204" fill="#F7FBFF" filter="url(#soft-shadow)" font-family="Space Grotesk, Inter, ui-sans-serif, system-ui, -apple-system, BlinkMacSystemFont, Segoe UI, sans-serif" font-size="76" font-weight="650" letter-spacing="-2.2">Quantum Landscape</text></svg>